# xmcd
#
# Track frame offsets:
#	150
#	14585
#	26356
#	39803
#	52219
#	65363
#	80547
#	94640
#	106450
#	117838
#	130325
#	143931
#	158408
#	170791
#	183045
#	197054
#	208818
#	222749
#	238228
#	251403
#
# Disc length: 3554 seconds
#
# Revision: 2
# Processed by: cddbd v1.5.2PL0 Copyright (c) Steve Scherf et al.
# Submitted via: audiograbber 1.83.01
#
DISCID=1f0de014
DTITLE=Assisão - 20 Super Sucessos - Volume 2
DYEAR=2006
DGENRE=Forró
TTITLE0=Chaminé
TTITLE1=Historia de Pescador
TTITLE2=Concertina Gemedeira
TTITLE3=Forró da Pipoca
TTITLE4=Saudade da Maria
TTITLE5=Enxugando Gelo
TTITLE6=Sertanejo Apaixonado
TTITLE7=A Transa do Gavião
TTITLE8=Na Base da Chinela
TTITLE9=Promessa é Divida
TTITLE10=Fazer Amor
TTITLE11=Mexendo o Pirão
TTITLE12=Linda Maria
TTITLE13=Nêga Fogosa
TTITLE14=Fogo Cerrado
TTITLE15=Maria
TTITLE16=Tolinha
TTITLE17=Festa de Noca
TTITLE18=Postal Sonoro
TTITLE19=Forró Está Presente
EXTD=Dados Por - Dayvison de Azevedo - Recife - PE\nFacebook - https://www.face
EXTD=book.com/profile.php?id=100006142608616
EXTT0=
EXTT1=
EXTT2=
EXTT3=
EXTT4=
EXTT5=
EXTT6=
EXTT7=
EXTT8=
EXTT9=
EXTT10=
EXTT11=
EXTT12=
EXTT13=
EXTT14=
EXTT15=
EXTT16=
EXTT17=
EXTT18=
EXTT19=
PLAYORDER=
